<?xml version="1.0" encoding="UTF-8"?>
<svg xmlns="http://www.w3.org/2000/svg" xmlns:xlink="http://www.w3.org/1999/xlink" width="18pt" height="18pt" viewBox="0 0 18 18" version="1.1">
<g id="surface1">
<path style=" stroke:none;fill-rule:nonzero;fill:rgb(68.627451%,68.627451%,68.627451%);fill-opacity:1;" d="M 13.015625 8.867188 C 14.382812 8.867188 15.488281 7.519531 15.488281 5.863281 C 15.488281 4.203125 15.125 2.855469 13.015625 2.855469 C 10.90625 2.855469 10.542969 4.203125 10.542969 5.863281 C 10.542969 7.519531 11.648438 8.867188 13.015625 8.867188 Z M 13.015625 8.867188 "/>
<path style=" stroke:none;fill-rule:nonzero;fill:rgb(68.627451%,68.627451%,68.627451%);fill-opacity:1;" d="M 17.683594 13.332031 C 17.636719 10.441406 17.257812 9.617188 14.371094 9.097656 C 14.371094 9.097656 13.964844 9.613281 13.015625 9.613281 C 12.070312 9.613281 11.660156 9.097656 11.660156 9.097656 C 8.804688 9.613281 8.402344 10.421875 8.351562 13.238281 C 8.347656 13.46875 8.34375 13.480469 8.34375 13.453125 C 8.34375 13.503906 8.34375 13.59375 8.34375 13.757812 C 8.34375 13.757812 9.03125 15.144531 13.015625 15.144531 C 17 15.144531 17.6875 13.757812 17.6875 13.757812 C 17.6875 13.652344 17.6875 13.582031 17.6875 13.53125 C 17.6875 13.546875 17.6875 13.515625 17.683594 13.332031 Z M 17.683594 13.332031 "/>
</g>
</svg>
