<?xml version="1.0" encoding="UTF-8"?>
<svg xmlns="http://www.w3.org/2000/svg" xmlns:xlink="http://www.w3.org/1999/xlink" width="10pt" height="10pt" viewBox="0 0 10 10" version="1.1">
<g id="surface1">
<path style=" stroke:none;fill-rule:nonzero;fill:rgb(30.196078%,30.196078%,30.196078%);fill-opacity:1;" d="M 3.945312 7 L 4.722656 7.777344 L 7.5 5 L 4.722656 2.222656 L 3.945312 3 L 5.390625 4.445312 L 0 4.445312 L 0 5.554688 L 5.390625 5.554688 Z M 8.890625 0 L 1.109375 0 C 0.5 0 0 0.5 0 1.109375 L 0 3.332031 L 1.109375 3.332031 L 1.109375 1.109375 L 8.890625 1.109375 L 8.890625 8.890625 L 1.109375 8.890625 L 1.109375 6.667969 L 0 6.667969 L 0 8.890625 C 0 9.5 0.5 10 1.109375 10 L 8.890625 10 C 9.5 10 10 9.5 10 8.890625 L 10 1.109375 C 10 0.5 9.5 0 8.890625 0 Z M 8.890625 0 "/>
</g>
</svg>
