<svg xmlns="http://www.w3.org/2000/svg" width="20px" height="20px" viewBox="0 0 20 20"><path d="M10 0C4.5 0 0 4.5 0 10s4.5 10 10 10 10-4.5 10-10S15.5 0 10 0zm.5 13.9c-.2.2-.5.3-.9.3s-.7-.1-.9-.3c-.2-.2-.3-.5-.3-.8s.1-.6.3-.8c.3-.2.6-.3 1-.3s.7.1.9.3c.2.2.3.5.3.8s-.1.6-.4.8zm1.9-5c-.2.3-.6.6-1 .9-.4.3-.6.4-.7.6s-.1.3-.1.4v.3H8.7v-.5c0-.4.1-.7.2-.9.2-.3.5-.5.9-.7.3-.2.5-.4.7-.5.1-.2.2-.3.2-.5s-.1-.3-.2-.4c-.1-.1-.3-.1-.6-.1-.6 0-1.2.2-2 .6l-.8-1.6C8 5.9 9 5.7 10 5.7c.8 0 1.5.2 2 .6s.7.9.7 1.5c0 .4-.1.8-.3 1.1z" fill="#333"/></svg>