<svg xmlns="http://www.w3.org/2000/svg" width="20px" height="20px" viewBox="0 0 20 20"><path d="M7.5 5.7c.1-.7.4-1.2.7-1.6.3-.4.6-.8 1-1.2.4-.5.7-.7.8-.8.2-.1.3-.2.4-.3-.4 1.2-.6 2.2-.6 3 0 .8.2 1.5.5 2s.8.9 1.4 1.2c.2 0 .3.1.5.1.6 0 .7-.6.4-1.8-.2-.7-.3-1.2-.5-1.5 1.3.8 2.2 1.9 2.9 3.2.6 1.3.8 2.6.5 4-.1.5-.3 1-.5 1.4-.2.4-.5.8-.8 1-.3.3-.6.5-1 .7l-1 .5c-.3.1-.6.2-1.1.4-.2 0-.3.1-.5.1h-.4c-.1 0-.2 0-.2-.1-.1 0-.1-.1-.1-.1v-.2-.2c0-.1 0-.1.1-.3.1-.1.1-.2.1-.3 0-.1.1-.2.2-.3.2-.3.3-.7.4-.9.1-.3.2-.6.2-.8.1-.8 0-1.5-.3-2.1-.3-.6-.8-1.2-1.4-1.8.2.3.2.9.2 1.8-.1.9-.2 1.6-.5 2.1-.1.2-.3.5-.4.7-.2.2-.3.5-.6.7-.2.2-.4.4-.7.6-.2.1-.5.2-.7.3-.3 0-.5 0-.7-.2-.5-.3-1-.8-1.2-1.3-.3-.5-.4-1-.5-1.4-.1-.2-.1-.4-.1-.7 0-.3 0-.6.1-1s.2-.8.5-1.2c.2-.4.6-.8 1-1.2-.2.3-.2.6-.2.9 0 .3.1.7.2.9.1.3.2.5.5.7.2.2.5.2.8.2.1 0 .3-.1.4-.1.1-.1.2-.1.2-.2.1-.1.1-.2.2-.3 0-.1.1-.2.1-.4v-.4V9c0-.2-.1-.4-.1-.5 0-.1 0-.3-.1-.5 0-.2-.1-.4-.1-.5-.3-.5-.2-1.2 0-1.8z" fill="#ed1c24"/></svg>