<?xml version="1.0" encoding="UTF-8"?>
<svg xmlns="http://www.w3.org/2000/svg" xmlns:xlink="http://www.w3.org/1999/xlink" width="15pt" height="15pt" viewBox="0 0 15 15" version="1.1">
<g id="surface1">
<path style=" stroke:none;fill-rule:nonzero;fill:rgb(61.176471%,60.392157%,60.392157%);fill-opacity:1;" d="M 7.5 15 C 3.363281 15 0 11.636719 0 7.5 C 0 3.363281 3.363281 0 7.5 0 C 11.636719 0 15 3.363281 15 7.5 C 15 11.636719 11.636719 15 7.5 15 Z M 7.5 0.855469 C 3.835938 0.855469 0.855469 3.835938 0.855469 7.5 C 0.855469 11.164062 3.835938 14.140625 7.5 14.140625 C 11.164062 14.140625 14.140625 11.164062 14.140625 7.5 C 14.140625 3.835938 11.164062 0.855469 7.5 0.855469 Z M 7.5 0.855469 "/>
<path style=" stroke:none;fill-rule:nonzero;fill:rgb(61.176471%,60.392157%,60.392157%);fill-opacity:1;" d="M 10.457031 7.929688 L 4.542969 7.929688 C 4.304688 7.929688 4.113281 7.738281 4.113281 7.5 C 4.113281 7.261719 4.304688 7.070312 4.542969 7.070312 L 10.457031 7.070312 C 10.695312 7.070312 10.886719 7.261719 10.886719 7.5 C 10.886719 7.738281 10.695312 7.929688 10.457031 7.929688 Z M 10.457031 7.929688 "/>
</g>
</svg>
